# AST/ASF file generated using VICON BodyLanguage
# -----------------------------------------------
:version 1.10
:name VICON
:units
  mass 1.0
  length 0.45
  angle deg
:documentation
   .ast/.asf automatically generated from VICON data using
   VICON BodyBuilder and BodyLanguage model FoxedUp or BRILLIANT.MOD
:root
   order TX TY TZ RX RY RZ
   axis XYZ
   position 0 0 0  
   orientation 0 0 0 
:bonedata
  begin
     id 1 
     name lhipjoint
     direction 0.577973 -0.728611 0.367523 
     length 2.48544 
     axis 0 0 0  XYZ
  end
  begin
     id 2 
     name lfemur
     direction 0.34202 -0.939693 0  
     length 7.1921  
     axis 0 0 20  XYZ
    dof rx ry rz
    limits (-160.0 20.0)
           (-70.0 70.0)
           (-60.0 70.0)
  end
  begin
     id 3 
     name ltibia
     direction 0.34202 -0.939693 0   
     length 7.71059   
     axis 0 0 20   XYZ
    dof rx
    limits (-10.0 170.0)
  end
  begin
     id 4 
     name lfoot
     direction 0.089538 -0.246004 0.965124   
     length 2.19909   
     axis -90 7.62852e-016 20   XYZ
    dof rx rz
    limits (-45.0 90.0)
           (-70.0 20.0)
  end
  begin
     id 5 
     name ltoes
     direction 1.53544e-011 -4.21829e-011 1   
     length 1.10116   
     axis -90 7.62852e-016 20   XYZ
    dof rx
    limits (-90.0 20.0)
  end
  begin
     id 6 
     name rhipjoint
     direction -0.554414 -0.743062 0.374812   
     length 2.4371  
     axis 0 0 0  XYZ 
  end
  begin
     id 7 
     name rfemur
     direction -0.34202 -0.939693 0   
     length 7.47254   
     axis 0 0 -20   XYZ
    dof rx ry rz
    limits (-160.0 20.0)
           (-70.0 70.0)
           (-70.0 60.0)
  end
  begin
     id 8 
     name rtibia
     direction -0.34202 -0.939693 0   
     length 7.65855   
     axis 0 0 -20   XYZ
    dof rx
    limits (-10.0 170.0)
 end
 begin
     id 9 
     name rfoot
     direction -0.133779 -0.367555 0.92033   
     length 2.43006  
     axis -90 -7.62852e-016 -20   XYZ
    dof rx rz
    limits (-45.0 90.0)
           (-20.0 70.0)
  end
  begin
     id 10 
     name rtoes
     direction -1.53563e-011 -4.21889e-011 1   
     length 1.19625   
     axis -90 -7.62852e-016 -20   XYZ
    dof rx
    limits (-90.0 20.0)
  end
  begin
     id 11 
     name lowerback
     direction 0.0249066 0.998043 -0.0573585   
     length 2.08485   
     axis 0 0 0   XYZ
    dof rx ry rz
    limits (-20.0 45.0)
           (-30.0 30.0)
           (-30.0 30.0)
  end
  begin
     id 12 
     name upperback
     direction 0.0237884 0.999673 0.00943178   
     length 2.08515   
     axis 0 0 0   XYZ
    dof rx ry rz
    limits (-20.0 45.0)
           (-30.0 30.0)
           (-30.0 30.0)
  end
  begin
     id 13 
     name thorax
     direction 0.0106671 0.999301 0.0358174   
     length 2.09037   
     axis 0 0 0   XYZ
    dof rx ry rz
    limits (-20.0 45.0)
           (-30.0 30.0)
           (-30.0 30.0)
  end
  begin
     id 14 
     name lowerneck
     direction -0.0580016 0.987052 0.149546   
     length 1.84454   
     axis 0 0 0   XYZ
    dof rx ry rz
    limits (-20.0 45.0)
           (-30.0 30.0)
           (-30.0 30.0)
  end
  begin
     id 15 
     name upperneck
     direction 0.079456 0.981963 -0.171567   
     length 1.88141   
     axis 0 0 0   XYZ
    dof rx ry rz
    limits (-20.0 45.0)
           (-30.0 30.0)
           (-30.0 30.0)
  end
  begin
     id 16
     name head
     direction 0.0262167 0.9967 -0.0768276  
     length 1.89541  
     axis 0 0 0   XYZ
    dof rx ry rz
    limits (-20.0 45.0)
           (-30.0 30.0)
           (-30.0 30.0)
  end
  begin
     id 17 
     name lclavicle
     direction 0.946135 0.322134 -0.0325326  
     length 3.949  
     axis 0 0 0   XYZ
    dof ry rz
    limits (-20.0 10.0)
           (0.0 20.0)
  end
  begin
     id 18 
     name lhumerus
     direction 1 -4.48964e-011 1.94005e-028   
     length 5.10995   
     axis 180 -30 -90   XYZ
    dof rx ry rz
    limits (-60.0 90.0)
           (-90.0 90.0)
           (-90.0 90.0)
  end
  begin
     id 19
     name lradius
     direction 1 -4.48976e-011 2.87852e-027   
     length 3.21207   
     axis 180 -30 -90   XYZ
    dof rx
    limits (-10.0 170.0)
  end
  begin
     id 20
     name lwrist
     direction 1 -4.48963e-011 1.9975e-027   
     length 1.60604   
     axis 2.96054e-016 90 90   XYZ
    dof ry
    limits (-180.0 0.0)
 end
  begin
     id 21 
     name lhand
     direction 1 -4.48919e-011 4.00227e-027   
     length 0.63349   
     axis -2.5488e-015 90 90   XYZ
    dof rx rz
    limits (-90.0 90.0)
           (-45.0 45.0)
  end
  begin
     id 22 
     name lfingers
     direction 1 -4.49037e-011 7.9652e-027   
     length 0.510736   
     axis -5.0975e-015 90 90   XYZ
    dof rx
    limits (0.0 90.0)
  end
  begin
     id 23
     name lthumb
     direction 0.707107 -6.34922e-011 0.707107   
     length 0.733318   
     axis -90 45 -4.48553e-014   XYZ
    dof rx rz
    limits (-45.0 45.0)
           (-45.0 45.0)
  end
  begin
     id 24 
     name rclavicle
     direction -0.940085 0.328911 -0.0897654   
     length 3.93848  
     axis 0 0 0   XYZ 
    dof ry rz
    limits (-10.0 20.0)
           (-20.0 0.0)
  end
  begin
     id 25 
     name rhumerus
     direction -1 -4.48958e-011 3.02044e-027  
     length 5.25109   
     axis 180 30 90   XYZ
    dof rx ry rz
    limits (-90.0 60.0)
           (-90.0 90.0)
           (-90.0 90.0)
  end
  begin
     id 26 
     name rradius
     direction -1 -4.4897e-011 9.78352e-028   
     length 3.28364   
     axis 180 30 90   XYZ
    dof rx
    limits (-10.0 170.0)
  end
  begin
     id 27 
     name rwrist
     direction -1 -4.48943e-011 1.99918e-027   
     length 1.64182   
     axis 2.96054e-016 -90 -90   XYZ
    dof ry
    limits (-180.0 0.0)
  end
  begin
     id 28
     name rhand
     direction -1 -4.49024e-011 3.98478e-027   
     length 0.599745   
     axis -2.5488e-015 -90 -90   XYZ
    dof rx rz
    limits (-90.0 90.0)
           (-45.0 45.0)
  end
  begin
     id 29
     name rfingers
     direction -1 -4.48914e-011 8.00621e-027   
     length 0.48353   
     axis -5.0975e-015 -90 -90   XYZ
    dof rx
    limits (0.0 90.0)
  end
  begin
     id 30
     name rthumb
     direction -0.707107 -6.34992e-011 0.707107   
     length 0.694255   
     axis -90 -45 4.48553e-014   XYZ
    dof rx rz
    limits (-45.0 45.0)
           (-45.0 45.0)
  end
:hierarchy
  begin
    root lhipjoint rhipjoint lowerback
    lhipjoint lfemur
    lfemur ltibia
    ltibia lfoot
    lfoot ltoes
    rhipjoint rfemur
    rfemur rtibia
    rtibia rfoot
    rfoot rtoes
    lowerback upperback
    upperback thorax
    thorax lowerneck lclavicle rclavicle
    lowerneck upperneck
    upperneck head
    lclavicle lhumerus
    lhumerus lradius
    lradius lwrist
    lwrist lhand lthumb
    lhand lfingers
    rclavicle rhumerus
    rhumerus rradius
    rradius rwrist
    rwrist rhand rthumb
    rhand rfingers
  end

#!OML:ASF E:\CV Data\Top Level 1\Subject 1\Session 1\player.ASF
:FULLY-SPECIFIED
:DEGREES
701
root 6.745 17.1104 -9.36575 35.8948 -77.4198 -34.2046
lowerback 8.20016 3.18508 3.34341
upperback -0.482441 4.64114 1.8316
thorax -4.98471 2.21778 -0.535009
lowerneck -16.3483 10.5886 -2.62446
upperneck 17.4267 14.4885 3.20548
head 7.59619 7.02482 3.02923
rclavicle 2.00027e-015 1.09332e-014
rhumerus 138.262 141.222 73.089
rradius 91.7259
rwrist -19.3865
rhand -26.733 20.2199
rfingers 7.12502
rthumb -0.162202 -9.75975
lclavicle 2.00027e-015 1.09332e-014
lhumerus -38.9164 -35.1858 109.251
lradius 89.9089
lwrist 33.0289
lhand -21.5734 18.7759
lfingers 7.12502
lthumb 4.8207 48.7011
rfemur -20.3604 3.8516 30.0946
rtibia 40.2289
rfoot -20.8955 -7.62814
rtoes 10.7447
lfemur -21.7427 7.86861 -12.294
ltibia 53.2072
lfoot -22.5568 3.80674
ltoes -7.55405
702
root 6.72341 17.1174 -9.36091 36.2797 -77.8705 -34.5268
lowerback 8.13454 3.18041 3.27914
upperback -0.490524 4.62321 1.75537
thorax -4.95521 2.21084 -0.572407
lowerneck -16.2724 10.7298 -2.58939
upperneck 17.3919 14.6785 3.16409
head 7.57122 7.11478 3.02277
rclavicle -1.15171e-014 -1.23246e-014
rhumerus 138.187 141.256 73.1749
rradius 92.0624
rwrist -19.7373
rhand -27.076 20.9303
rfingers 7.12502
rthumb -0.493474 -9.04885
lclavicle -1.15171e-014 -1.23246e-014
lhumerus -38.9291 -35.3035 109.251
lradius 90.2371
lwrist 33.0856
lhand -21.4918 18.5812
lfingers 7.12502
lthumb 4.8995 48.5046
rfemur -20.3271 4.08627 29.9007
rtibia 40.2291
rfoot -20.8948 -7.52064
rtoes 10.7085
lfemur -21.9611 7.07077 -12.3669
ltibia 52.3522
lfoot -22.9663 3.3142
ltoes -8.31668
703
root 6.7014 17.1242 -9.35444 36.7745 -78.2917 -34.9636
lowerback 8.06998 3.16679 3.25188
upperback -0.504721 4.5977 1.69102
thorax -4.93111 2.19904 -0.617375
lowerneck -16.1873 10.8741 -2.5495
upperneck 17.3688 14.8728 3.11608
head 7.54949 7.20608 3.01391
rclavicle -1.73067e-014 -7.7526e-015
rhumerus 138.099 141.282 73.253
rradius 92.3908
rwrist -20.2041
rhand -27.3191 21.5545
rfingers 7.12502
rthumb -0.728266 -8.42401
lclavicle -1.73067e-014 -7.7526e-015
lhumerus -38.9847 -35.424 109.277
lradius 90.5626
lwrist 33.0607
lhand -21.4272 18.3679
lfingers 7.12502
lthumb 4.96187 48.2898
rfemur -20.2778 4.29785 29.7328
rtibia 40.2013
rfoot -20.8823 -7.39694
rtoes 10.6618
lfemur -22.15 6.23969 -12.4066
ltibia 51.4058
lfoot -23.3389 3.01019
ltoes -9.2002
704
root 6.67887 17.1321 -9.3469 37.3337 -78.6951 -35.4715
lowerback 8.00641 3.14671 3.23508
upperback -0.521158 4.56518 1.63808
thorax -4.9103 2.18348 -0.655688
lowerneck -16.1012 11.0201 -2.50958
upperneck 17.3639 15.0707 3.06422
head 7.53408 7.29809 3.00499
rclavicle 1.54058e-015 5.96354e-015
rhumerus 138.014 141.315 73.3376
rradius 92.7093
rwrist -20.6261
rhand -27.417 21.9866
rfingers 7.12502
rthumb -0.8228 -7.99159
lclavicle 1.54058e-015 5.96354e-015
lhumerus -39.0548 -35.5384 109.318
lradius 90.8724
lwrist 32.9382
lhand -21.3427 18.1525
lfingers 7.12502
lthumb 5.04349 48.0725
rfemur -20.206 4.49108 29.5767
rtibia 40.1445
rfoot -20.8749 -7.26023
rtoes 10.6788
lfemur -22.303 5.34746 -12.4201
ltibia 50.384
lfoot -23.6893 2.78834
ltoes -9.90831
705
root 6.65578 17.1403 -9.33822 37.9874 -79.0856 -36.0843
lowerback 7.9425 3.12528 3.23837
upperback -0.536164 4.53287 1.59133
thorax -4.88682 2.16757 -0.698694
lowerneck -16.0184 11.163 -2.47149
upperneck 17.3792 15.2642 3.01676
head 7.52568 7.38774 2.99847
rclavicle -7.14382e-015 -1.0138e-014
rhumerus 137.944 141.377 73.4504
rradius 93.0237
rwrist -20.8194
rhand -27.3203 22.1625
rfingers 7.12502
rthumb -0.729413 -7.81605
lclavicle -7.14382e-015 -1.0138e-014
lhumerus -39.1354 -35.6564 109.375
lradius 91.1533
lwrist 32.6826
lhand -21.205 17.9656
lfingers 7.12502
lthumb 5.17644 47.8824
rfemur -20.1128 4.67491 29.4339
rtibia 40.0672
rfoot -20.8734 -7.11179
rtoes 10.7428
lfemur -22.4194 4.4145 -12.406
ltibia 49.3073
lfoot -24.0229 2.59198
ltoes -10.4638
